<?xml version="1.0" encoding="UTF-8"?>
<svg width="1280" height="720" viewBox="0 0 1280 720" xmlns="http://www.w3.org/2000/svg">
  <defs>
    <radialGradient id="g1" cx="30%" cy="40%">
      <stop offset="0%" stop-color="#D0E8F5"/>
      <stop offset="50%" stop-color="#A8D1E6"/>
      <stop offset="100%" stop-color="#7DBBDB"/>
    </radialGradient>
    <linearGradient id="g2" x1="0%" y1="0%" x2="100%" y2="100%">
      <stop offset="0%" stop-color="#C0DFF0"/>
      <stop offset="100%" stop-color="#6FB3D9"/>
    </linearGradient>
    <radialGradient id="g3" cx="35%" cy="45%">
      <stop offset="0%" stop-color="#D5EDB8"/>
      <stop offset="50%" stop-color="#AAD989"/>
      <stop offset="100%" stop-color="#7BC77F"/>
    </radialGradient>
    <linearGradient id="g4" x1="0%" y1="0%" x2="100%" y2="100%">
      <stop offset="0%" stop-color="#5FD4C4"/>
      <stop offset="50%" stop-color="#3AAFA3"/>
      <stop offset="100%" stop-color="#1B8F9A"/>
    </linearGradient>
    <linearGradient id="g5" x1="0%" y1="0%" x2="100%" y2="100%">
      <stop offset="0%" stop-color="#5AAED0"/>
      <stop offset="50%" stop-color="#3493B8"/>
      <stop offset="100%" stop-color="#1E7FA4"/>
    </linearGradient>
    <linearGradient id="g6" x1="0%" y1="0%" x2="100%" y2="100%">
      <stop offset="0%" stop-color="#2B88AA"/>
      <stop offset="50%" stop-color="#1A6983"/>
      <stop offset="100%" stop-color="#0E5F7E"/>
    </linearGradient>
    <linearGradient id="g7" x1="0%" y1="0%" x2="100%" y2="100%">
      <stop offset="0%" stop-color="#1B7696"/>
      <stop offset="50%" stop-color="#115A75"/>
      <stop offset="100%" stop-color="#094A62"/>
    </linearGradient>
    <pattern id="p1" width="18" height="18" patternUnits="userSpaceOnUse">
      <path d="M0 0v18M0 0h18" stroke="#fff" stroke-width="1.5" opacity=".25"/>
    </pattern>
    <pattern id="p2" width="16" height="16" patternUnits="userSpaceOnUse">
      <path d="M0 0v16M0 0h16" stroke="#fff" stroke-width="1.8" opacity=".3"/>
    </pattern>
    <pattern id="p3" width="14" height="14" patternUnits="userSpaceOnUse">
      <path d="M0 0v14M0 0h14" stroke="#fff" stroke-width="2" opacity=".32"/>
    </pattern>
    <filter id="s">
      <feGaussianBlur in="SourceAlpha" stdDeviation="2"/>
      <feOffset dy="2"/>
      <feComponentTransfer><feFuncA type="linear" slope=".15"/></feComponentTransfer>
      <feMerge><feMergeNode/><feMergeNode in="SourceGraphic"/></feMerge>
    </filter>
  </defs>
  <path fill="#F8FBFD" d="M0 0h1280v720H0z"/>
  <g opacity=".45">
    <path fill="url(#g1)" d="M60 280Q200 240 340 220T600 240T860 300T1120 380Q1160 400 1200 420V600Q1160 580 1120 560T860 480T600 420T340 400Q200 420 60 460Z"/>
  </g>
  <g opacity=".55">
    <path fill="url(#g2)" d="M80 240Q220 210 360 200T620 220T880 280Q950 305 1020 330V450Q950 425 880 400T620 340T360 320Q220 330 80 360Z"/>
  </g>
  <g opacity=".38">
    <path fill="url(#g3)" d="M140 260Q280 240 420 230T680 260T940 330Q980 355 1020 380V520Q980 495 940 470T680 400T420 370Q280 380 140 400Z"/>
  </g>
  <g opacity=".65">
    <path fill="url(#g4)" d="M180 320Q320 300 460 290T720 320T980 390Q1050 425 1120 460V560Q1050 525 980 490T720 420T460 390Q320 400 180 420Z"/>
    <path fill="url(#p1)" d="M180 320Q320 300 460 290T720 320T980 390Q1050 425 1120 460V560Q1050 525 980 490T720 420T460 390Q320 400 180 420Z"/>
  </g>
  <g opacity=".7">
    <path fill="url(#g5)" d="M220 380Q360 360 500 350T760 380T1020 450Q1090 485 1160 520V605Q1090 570 1020 535T760 465T500 435Q360 445 220 465Z"/>
    <path fill="url(#p2)" d="M220 380Q360 360 500 350T760 380T1020 450Q1090 485 1160 520V605Q1090 570 1020 535T760 465T500 435Q360 445 220 465Z"/>
  </g>
  <g opacity=".75" filter="url(#s)">
    <path fill="url(#g6)" d="M260 440Q400 420 540 410T800 440T1060 510Q1130 545 1200 580V655Q1130 620 1060 585T800 515T540 485Q400 495 260 515Z"/>
    <path fill="url(#p3)" d="M260 440Q400 420 540 410T800 440T1060 510Q1130 545 1200 580V655Q1130 620 1060 585T800 515T540 485Q400 495 260 515Z"/>
  </g>
  <g opacity=".82" filter="url(#s)">
    <path fill="url(#g7)" d="M300 500Q440 480 580 470T840 500T1100 570Q1170 605 1240 640V705Q1170 670 1100 635T840 565T580 535Q440 545 300 565Z"/>
  </g>
</svg>
